<mxfile host="app.diagrams.net" agent="Mozilla/5.0 (Windows NT 10.0; Win64; x64) AppleWebKit/537.36 (KHTML, like Gecko) Chrome/139.0.0.0 Safari/537.36 Edg/139.0.0.0" version="27.1.1">
  <diagram name="Trang-1" id="iwbYoWMv2I9yMJdU8Pk-">
    <mxGraphModel dx="1034" dy="570" grid="1" gridSize="10" guides="1" tooltips="1" connect="1" arrows="1" fold="1" page="1" pageScale="1" pageWidth="3300" pageHeight="4681" math="0" shadow="0">
      <root>
        <mxCell id="0" />
        <mxCell id="1" parent="0" />
        <mxCell id="aMSx3D1bTIW3s119-Ioo-32" value="" style="edgeStyle=orthogonalEdgeStyle;rounded=0;orthogonalLoop=1;jettySize=auto;html=1;" edge="1" parent="1" source="aMSx3D1bTIW3s119-Ioo-1" target="aMSx3D1bTIW3s119-Ioo-30">
          <mxGeometry relative="1" as="geometry" />
        </mxCell>
        <mxCell id="aMSx3D1bTIW3s119-Ioo-1" value="Start" style="strokeWidth=2;html=1;shape=mxgraph.flowchart.start_1;whiteSpace=wrap;" vertex="1" parent="1">
          <mxGeometry x="380" y="110" width="160" height="80" as="geometry" />
        </mxCell>
        <mxCell id="aMSx3D1bTIW3s119-Ioo-16" value="" style="edgeStyle=orthogonalEdgeStyle;rounded=0;orthogonalLoop=1;jettySize=auto;html=1;" edge="1" parent="1" source="aMSx3D1bTIW3s119-Ioo-13" target="aMSx3D1bTIW3s119-Ioo-15">
          <mxGeometry relative="1" as="geometry" />
        </mxCell>
        <mxCell id="aMSx3D1bTIW3s119-Ioo-13" value="Nhập địa chỉ" style="shape=parallelogram;perimeter=parallelogramPerimeter;whiteSpace=wrap;html=1;fixedSize=1;rounded=1;absoluteArcSize=1;arcSize=14;strokeWidth=2;" vertex="1" parent="1">
          <mxGeometry x="385" y="490" width="150" height="60" as="geometry" />
        </mxCell>
        <mxCell id="aMSx3D1bTIW3s119-Ioo-18" value="" style="edgeStyle=orthogonalEdgeStyle;rounded=0;orthogonalLoop=1;jettySize=auto;html=1;" edge="1" parent="1" source="aMSx3D1bTIW3s119-Ioo-15" target="aMSx3D1bTIW3s119-Ioo-17">
          <mxGeometry relative="1" as="geometry" />
        </mxCell>
        <mxCell id="aMSx3D1bTIW3s119-Ioo-15" value="Thanh toán" style="whiteSpace=wrap;html=1;rounded=1;absoluteArcSize=1;arcSize=14;strokeWidth=2;" vertex="1" parent="1">
          <mxGeometry x="400" y="600" width="120" height="60" as="geometry" />
        </mxCell>
        <mxCell id="aMSx3D1bTIW3s119-Ioo-20" value="" style="edgeStyle=orthogonalEdgeStyle;rounded=0;orthogonalLoop=1;jettySize=auto;html=1;" edge="1" parent="1" source="aMSx3D1bTIW3s119-Ioo-17" target="aMSx3D1bTIW3s119-Ioo-19">
          <mxGeometry relative="1" as="geometry" />
        </mxCell>
        <mxCell id="aMSx3D1bTIW3s119-Ioo-17" value="Nhận món ăn" style="shape=parallelogram;html=1;strokeWidth=2;perimeter=parallelogramPerimeter;whiteSpace=wrap;rounded=1;arcSize=12;size=0.23;" vertex="1" parent="1">
          <mxGeometry x="380" y="690" width="160" height="60" as="geometry" />
        </mxCell>
        <mxCell id="aMSx3D1bTIW3s119-Ioo-19" value="End" style="strokeWidth=2;html=1;shape=mxgraph.flowchart.start_1;whiteSpace=wrap;" vertex="1" parent="1">
          <mxGeometry x="410" y="790" width="100" height="60" as="geometry" />
        </mxCell>
        <mxCell id="aMSx3D1bTIW3s119-Ioo-23" value="" style="edgeStyle=orthogonalEdgeStyle;rounded=0;orthogonalLoop=1;jettySize=auto;html=1;" edge="1" parent="1" source="aMSx3D1bTIW3s119-Ioo-21" target="aMSx3D1bTIW3s119-Ioo-13">
          <mxGeometry relative="1" as="geometry" />
        </mxCell>
        <mxCell id="aMSx3D1bTIW3s119-Ioo-21" value="Xác nhận đơn hàng" style="rhombus;whiteSpace=wrap;html=1;rounded=1;absoluteArcSize=1;arcSize=14;strokeWidth=2;" vertex="1" parent="1">
          <mxGeometry x="370" y="350" width="180" height="80" as="geometry" />
        </mxCell>
        <mxCell id="aMSx3D1bTIW3s119-Ioo-24" value="True" style="text;html=1;align=center;verticalAlign=middle;whiteSpace=wrap;rounded=0;" vertex="1" parent="1">
          <mxGeometry x="460" y="450" width="60" height="30" as="geometry" />
        </mxCell>
        <mxCell id="aMSx3D1bTIW3s119-Ioo-29" value="False" style="text;html=1;align=center;verticalAlign=middle;whiteSpace=wrap;rounded=0;" vertex="1" parent="1">
          <mxGeometry x="350" y="320" width="60" height="30" as="geometry" />
        </mxCell>
        <mxCell id="aMSx3D1bTIW3s119-Ioo-31" value="" style="edgeStyle=orthogonalEdgeStyle;rounded=0;orthogonalLoop=1;jettySize=auto;html=1;" edge="1" parent="1" source="aMSx3D1bTIW3s119-Ioo-30" target="aMSx3D1bTIW3s119-Ioo-21">
          <mxGeometry relative="1" as="geometry" />
        </mxCell>
        <mxCell id="aMSx3D1bTIW3s119-Ioo-30" value="Chọn món ăn từ menu" style="shape=parallelogram;perimeter=parallelogramPerimeter;whiteSpace=wrap;html=1;fixedSize=1;" vertex="1" parent="1">
          <mxGeometry x="365" y="230" width="190" height="60" as="geometry" />
        </mxCell>
        <mxCell id="aMSx3D1bTIW3s119-Ioo-33" style="edgeStyle=orthogonalEdgeStyle;rounded=0;orthogonalLoop=1;jettySize=auto;html=1;entryX=0.033;entryY=0.627;entryDx=0;entryDy=0;entryPerimeter=0;" edge="1" parent="1" source="aMSx3D1bTIW3s119-Ioo-21" target="aMSx3D1bTIW3s119-Ioo-30">
          <mxGeometry relative="1" as="geometry">
            <Array as="points">
              <mxPoint x="330" y="390" />
              <mxPoint x="330" y="268" />
            </Array>
          </mxGeometry>
        </mxCell>
      </root>
    </mxGraphModel>
  </diagram>
</mxfile>
